<svg width="40" height="40" viewBox="0 0 60 60" xmlns="http://www.w3.org/2000/svg"><path d="M22.468 23.71h-6.687v20.427h6.687V23.71zm0 0M22.908 17.39c-.043-2.002-1.452-3.527-3.74-3.527-2.287 0-3.783 1.525-3.783 3.528 0 1.961 1.452 3.53 3.697 3.53h.043c2.331 0 3.783-1.569 3.783-3.53zm0 0M46.585 32.425c0-6.275-3.3-9.195-7.7-9.195-3.55 0-5.14 1.983-6.027 3.374V23.71H26.17c.088 1.917 0 20.427 0 20.427h6.688V32.73c0-.61.043-1.22.22-1.656.483-1.22 1.583-2.483 3.431-2.483 2.42 0 3.388 1.873 3.388 4.618v10.929h6.687V32.425zm0 0" fill="#FFFFFF"/></svg>
