<svg width="40" height="40" viewBox="0 0 60 60" xmlns="http://www.w3.org/2000/svg">
  <path fill="#FFFFFF" d="M18.218 31.936c1.389 2.515 4.067 4.08 8.583 4.513-.645.488-1.42 1.414-1.526 2.485-.81.523-2.44.696-3.708.297-1.775-.56-2.455-4.067-5.114-3.567-.576.108-.461.487.037.808.81.524 1.573 1.178 2.161 2.572.452 1.07 1.402 2.982 4.406 2.982 1.192 0 2.027-.143 2.027-.143s.023 2.731.023 3.793c0 1.224-1.656 1.57-1.656 2.159 0 .233.548.255.989.255.87 0 2.682-.725 2.682-1.998 0-1.011.016-4.411.016-5.006 0-1.3.7-1.712.7-1.712s.086 6.941-.168 7.872c-.297 1.094-.834.939-.834 1.427 0 .726 2.18.178 2.904-1.416.558-1.24.314-8.05.314-8.05l.596-.012s.034 3.117.014 4.542c-.021 1.476-.121 3.342.757 4.222.577.579 2.448 1.594 2.448.666 0-.54-1.025-.983-1.025-2.442V39.47c.818 0 .695 2.208.695 2.208l.06 4.102s-.18 1.494 1.62 2.12c.635.222 1.995.282 2.059-.09.064-.373-1.637-.928-1.653-2.085-.01-.706.032-1.118.032-4.186 0-3.068-.413-4.202-1.852-5.106 4.44-.455 7.189-1.551 8.529-4.487.104.003.545-1.371.488-1.37.3-1.109.462-2.42.495-3.972-.008-4.21-2.027-5.699-2.416-6.398.573-3.187-.095-4.637-.405-5.135-1.144-.406-3.981 1.045-5.53 2.067-2.528-.737-7.868-.666-9.87.19-3.695-2.64-5.65-2.235-5.65-2.235s-1.264 2.26-.334 5.565c-1.216 1.546-2.122 2.64-2.122 5.54 0 1.633.193 3.095.628 4.372-.054 0 .583 1.367.6 1.367zm0 0" />
</svg>
