<?xml version="1.0" encoding="iso-8859-1"?>
<!-- Generator: Adobe Illustrator 18.1.1, SVG Export Plug-In . SVG Version: 6.00 Build 0)  -->
<svg version="1.1" id="Capa_1" xmlns="http://www.w3.org/2000/svg" xmlns:xlink="http://www.w3.org/1999/xlink" x="0px" y="0px"
	 viewBox="0 0 23.302 23.302" style="enable-background:new 0 0 23.302 23.302;" xml:space="preserve">
<g>
	<path style="fill:#010002;" d="M11.166,12.512c0,0-1.299-2.503-1.251-4.332c0.035-1.307,2.982-2.599,4.139-4.475
		C15.209,1.828,13.91,0,13.91,0s0.289,1.348-0.481,2.742c-0.77,1.396-3.612,2.215-4.717,4.621S11.166,12.512,11.166,12.512z"/>
	<path style="fill:#010002;" d="M16.028,4.908c0,0-4.427,1.685-4.427,3.609c0,1.926,1.202,2.551,1.396,3.176
		c0.192,0.627-0.337,1.685-0.337,1.685s1.732-1.203,1.442-2.599c-0.289-1.396-1.636-1.83-0.865-3.224
		C13.752,6.62,16.028,4.908,16.028,4.908z"/>
	<path style="fill:#010002;" d="M10.686,15.055c4.091-0.146,5.583-1.437,5.583-1.437c-2.646,0.721-9.673,0.674-9.722,0.145
		C6.5,13.234,8.712,12.8,8.712,12.8s-3.464,0-3.753,0.866S6.598,15.198,10.686,15.055z"/>
	<path style="fill:#010002;" d="M16.605,17.083c0,0,4.004-0.854,3.608-3.029c-0.48-2.648-3.272-1.156-3.272-1.156
		s1.975,0,2.166,1.202C19.3,15.303,16.605,17.083,16.605,17.083z"/>
	<path style="fill:#010002;" d="M14.632,15.929c0,0-1.009,0.265-2.504,0.433c-2.004,0.225-4.427,0.047-4.62-0.29
		c-0.19-0.337,0.337-0.529,0.337-0.529c-2.407,0.578-1.09,1.587,1.731,1.781c2.418,0.165,6.017-0.722,6.017-0.722L14.632,15.929z"/>
	<path style="fill:#010002;" d="M8.425,18.031c0,0-1.092,0.031-1.156,0.609c-0.063,0.574,0.672,1.09,3.368,1.25
		c2.695,0.16,4.589-0.737,4.589-0.737l-1.219-0.74c0,0-0.771,0.162-1.958,0.322c-1.188,0.161-3.624-0.129-3.72-0.352
		C8.231,18.158,8.425,18.031,8.425,18.031z"/>
	<path style="fill:#010002;" d="M18.914,20.63c0.417-0.45-0.129-0.803-0.129-0.803s0.192,0.225-0.062,0.481
		c-0.257,0.256-2.6,0.897-6.354,1.09c-3.753,0.193-7.828-0.353-7.957-0.834c-0.125-0.481,2.087-0.865,2.087-0.865
		c-0.256,0.032-3.336,0.096-3.434,0.931c-0.096,0.833,1.347,1.507,7.124,1.507C15.963,22.136,18.499,21.077,18.914,20.63z"/>
	<path style="fill:#010002;" d="M16.669,22.522c-2.535,0.512-10.233,0.189-10.233,0.189s5.003,1.188,10.714,0.194
		c2.73-0.476,2.889-1.797,2.889-1.797S19.204,22.007,16.669,22.522z"/>
</svg>
